<svg
                      xmlns="http://www.w3.org/2000/svg"
                      viewBox="15 50 130.45 110.48">
                      <defs>
                        <style>
                          .ae652df5-d611-4ff1-89be-80689137f8d4 {
                            fill: none;
                            stroke: #000;
                            stroke-miterlimit: 10;
                            stroke-width: 0.5%;
                          }

                          .ae2ccc90-e9a8-4d35-9b20-ce44f4c607f4 {
                            clip-path: url(#eb945194-b94b-4363-a547-7df9a0b90faf);
                          }

                          .fad2b1df-f08b-4662-b1ce-293679eaf856 {
                            clip-path: url(#ad91fc89-c66d-4041-8989-d3cab8af7d5d);
                          }

                          .afc6a9e0-b49e-4559-9f77-b6550e9293aa {
                            clip-path: url(#fe1c328f-71a7-41d1-baff-0469522633e9);
                          }
                        </style>
                        <clipPath id="eb945194-b94b-4363-a547-7df9a0b90faf" transform="translate(17.42 20.89)">
                          <path class="ae652df5-d611-4ff1-89be-80689137f8d4"
                            d="M57.2,79.8c-1.75.89-3.42,3.8-4.78,7l0,0C47,97.91,42.26,116.9,42.26,116.9,34.6,114.55,17,90.2,17,90.2c-2.12-20.6,5.89-30.49,5.89-30.49a70.52,70.52,0,0,0,11,9.37A72.75,72.75,0,0,0,57.2,79.8Z" />
                        </clipPath>
                        <clipPath id="ad91fc89-c66d-4041-8989-d3cab8af7d5d" transform="translate(17.42 20.89)">
                          <path class="ae652df5-d611-4ff1-89be-80689137f8d4"
                            d="M112.77,90.89S95.21,115.25,87.55,117.6c0,0-2.82-11.34-6.6-21.61v0a24.29,24.29,0,0,0-1.83-4.64.08.08,0,0,1,0,0C77,86.33,74.78,82.19,72.61,80.5A72.93,72.93,0,0,0,96.83,69.08a69.2,69.2,0,0,0,10-8.67S114.89,70.3,112.77,90.89Z" />
                        </clipPath>
                        <clipPath id="fe1c328f-71a7-41d1-baff-0469522633e9" transform="translate(17.42 20.89)">
                          <path class="ae652df5-d611-4ff1-89be-80689137f8d4"
                            d="M106.88,60.41a69.2,69.2,0,0,1-10,8.67c-31.24-15.25-62.86,0-62.86,0a70.52,70.52,0,0,1-11-9.37S68,33.4,106.88,60.41Z" />
                        </clipPath>
                        <image id="ab647f06-a5f6-421d-98d5-19f8d67b10ff" width="768" height="1024"
                          xlink:href="Images/Red-Cotton-Linen.jpg" />
                      </defs>

                      <g class="ae2ccc90-e9a8-4d35-9b20-ce44f4c607f4">
                        <use transform="translate(7.61) scale(0.28)"
                          xlink:href="#ab647f06-a5f6-421d-98d5-19f8d67b10ff" />
                      </g>
                      <path class="ae652df5-d611-4ff1-89be-80689137f8d4"
                        d="M57.2,79.8c-1.75.89-3.42,3.8-4.78,7l0,0C47,97.91,42.26,116.9,42.26,116.9,34.6,114.55,17,90.2,17,90.2c-2.12-20.6,5.89-30.49,5.89-30.49a70.52,70.52,0,0,0,11,9.37A72.75,72.75,0,0,0,57.2,79.8Z"
                        transform="translate(17.42 20.89)" />
                      <path class="ae652df5-d611-4ff1-89be-80689137f8d4"
                        d="M57.2,79.8c-1.59,1.24-3.21,3.78-4.78,7C53.78,83.6,55.45,80.69,57.2,79.8Z"
                        transform="translate(17.42 20.89)" />
                      <g class="fad2b1df-f08b-4662-b1ce-293679eaf856">
                        <use transform="translate(-17.42 -15.2) scale(0.28)"
                          xlink:href="#ab647f06-a5f6-421d-98d5-19f8d67b10ff" />
                      </g>
                      <path class="ae652df5-d611-4ff1-89be-80689137f8d4"
                        d="M112.77,90.89S95.21,115.25,87.55,117.6c0,0-2.82-11.34-6.6-21.61v0a24.29,24.29,0,0,0-1.83-4.64.08.08,0,0,1,0,0C77,86.33,74.78,82.19,72.61,80.5A72.93,72.93,0,0,0,96.83,69.08a69.2,69.2,0,0,0,10-8.67S114.89,70.3,112.77,90.89Z"
                        transform="translate(17.42 20.89)" />
                      <path class="ae652df5-d611-4ff1-89be-80689137f8d4"
                        d="M80.94,96c-.59-1.59-1.21-3.16-1.83-4.64A24.29,24.29,0,0,1,80.94,96Z"
                        transform="translate(17.42 20.89)" />
                      <path class="ae652df5-d611-4ff1-89be-80689137f8d4"
                        d="M81,98.33s-18.93,6.28-32.09-1.19A82.57,82.57,0,0,1,52.4,86.82l0,0c1.57-3.21,3.19-5.75,4.78-7a25.88,25.88,0,0,0,15.41.7,100.49,100.49,0,0,1,6.48,10.76.08.08,0,0,0,0,0c.62,1.48,1.24,3,1.83,4.64v0A4.48,4.48,0,0,1,81,98.33Z"
                        transform="translate(17.42 20.89)" style="fill: #fff;" />
                      <path class="ae652df5-d611-4ff1-89be-80689137f8d4"
                        d="M57.2,79.8c-1.59,1.24-3.21,3.78-4.78,7C53.78,83.6,55.45,80.69,57.2,79.8Z"
                        transform="translate(17.42 20.89)" />
                      <path class="ae652df5-d611-4ff1-89be-80689137f8d4"
                        d="M80.94,96c-.59-1.59-1.21-3.16-1.83-4.64A24.29,24.29,0,0,1,80.94,96Z"
                        transform="translate(17.42 20.89)" />
                      <path class="ae652df5-d611-4ff1-89be-80689137f8d4"
                        d="M96.83,69.08A72.93,72.93,0,0,1,72.61,80.5a25.88,25.88,0,0,1-15.41-.7A72.75,72.75,0,0,1,34,69.08S65.59,53.83,96.83,69.08Z"
                        transform="translate(17.42 20.89)" />
                      <g class="afc6a9e0-b49e-4559-9f77-b6550e9293aa">
                        <use transform="translate(-17.42 -15.2) scale(0.28)"
                          xlink:href="#ab647f06-a5f6-421d-98d5-19f8d67b10ff" />
                      </g>
                      <path class="ae652df5-d611-4ff1-89be-80689137f8d4"
                        d="M106.88,60.41a69.2,69.2,0,0,1-10,8.67c-31.24-15.25-62.86,0-62.86,0a70.52,70.52,0,0,1-11-9.37S68,33.4,106.88,60.41Z"
                        transform="translate(17.42 20.89)" />
                      <path class="ae652df5-d611-4ff1-89be-80689137f8d4" d="M61.18,81.29s-3.38,12.18,0,19.51"
                        transform="translate(17.42 20.89)" />
                      <circle class="ae652df5-d611-4ff1-89be-80689137f8d4 btnColorChange" cx="83.04" cy="112.84"
                        r="2.15" />
                    </svg>